# AST/ASF file generated using VICON BodyLanguage
# -----------------------------------------------
:version 1.10
:name VICON
:units
  mass 1.0
  length 0.45
  angle deg
:documentation
   .ast/.asf automatically generated from VICON data using
   VICON BodyBuilder and BodyLanguage model FoxedUp or BRILLIANT.MOD
:root
   order TX TY TZ RX RY RZ
   axis XYZ
   position 0 0 0  
   orientation 0 0 0 
:bonedata
  begin
     id 1 
     name lhipjoint
     direction 0.440178 -0.822639 0.359871 
     length 2.53113 
     axis 0 0 0  XYZ
  end
  begin
     id 2 
     name lfemur
     direction 0.34202 -0.939693 0  
     length 7.88132  
     axis 0 0 20  XYZ
    dof rx ry rz
    limits (-160.0 20.0)
           (-70.0 70.0)
           (-60.0 70.0)
  end
  begin
     id 3 
     name ltibia
     direction 0.34202 -0.939693 0   
     length 8.43783   
     axis 0 0 20   XYZ
    dof rx
    limits (-10.0 170.0)
  end
  begin
     id 4 
     name lfoot
     direction 0.0886351 -0.243523 0.965837   
     length 2.63414   
     axis -90 7.62852e-016 20   XYZ
    dof rx rz
    limits (-45.0 90.0)
           (-70.0 20.0)
  end
  begin
     id 5 
     name ltoes
     direction 1.53703e-011 -4.21717e-011 1   
     length 1.31427   
     axis -90 7.62852e-016 20   XYZ
    dof rx
    limits (-90.0 20.0)
  end
  begin
     id 6 
     name rhipjoint
     direction -0.399779 -0.839773 0.367367   
     length 2.47948  
     axis 0 0 0  XYZ 
  end
  begin
     id 7 
     name rfemur
     direction -0.34202 -0.939693 0   
     length 7.74806   
     axis 0 0 -20   XYZ
    dof rx ry rz
    limits (-160.0 20.0)
           (-70.0 70.0)
           (-70.0 60.0)
  end
  begin
     id 8 
     name rtibia
     direction -0.34202 -0.939693 0   
     length 8.74432   
     axis 0 0 -20   XYZ
    dof rx
    limits (-10.0 170.0)
 end
 begin
     id 9 
     name rfoot
     direction -0.108514 -0.298139 0.948334   
     length 2.66102  
     axis -90 -7.62852e-016 -20   XYZ
    dof rx rz
    limits (-45.0 90.0)
           (-20.0 70.0)
  end
  begin
     id 10 
     name rtoes
     direction -1.53392e-011 -4.22077e-011 1   
     length 1.31983   
     axis -90 -7.62852e-016 -20   XYZ
    dof rx
    limits (-90.0 20.0)
  end
  begin
     id 11 
     name lowerback
     direction 0.0113257 0.999866 0.0118602   
     length 2.58694   
     axis 0 0 0   XYZ
    dof rx ry rz
    limits (-20.0 45.0)
           (-30.0 30.0)
           (-30.0 30.0)
  end
  begin
     id 12 
     name upperback
     direction -0.0164747 0.995193 -0.0965375   
     length 2.52368   
     axis 0 0 0   XYZ
    dof rx ry rz
    limits (-20.0 45.0)
           (-30.0 30.0)
           (-30.0 30.0)
  end
  begin
     id 13 
     name thorax
     direction -0.0194301 0.99433 -0.104552   
     length 2.56099   
     axis 0 0 0   XYZ
    dof rx ry rz
    limits (-20.0 45.0)
           (-30.0 30.0)
           (-30.0 30.0)
  end
  begin
     id 14 
     name lowerneck
     direction 0.0148543 0.995587 -0.092657   
     length 1.71582   
     axis 0 0 0   XYZ
    dof rx ry rz
    limits (-20.0 45.0)
           (-30.0 30.0)
           (-30.0 30.0)
  end
  begin
     id 15 
     name upperneck
     direction -0.0135467 0.993656 -0.111639   
     length 1.68937   
     axis 0 0 0   XYZ
    dof rx ry rz
    limits (-20.0 45.0)
           (-30.0 30.0)
           (-30.0 30.0)
  end
  begin
     id 16
     name head
     direction -0.00615349 0.999547 -0.029448  
     length 1.7462  
     axis 0 0 0   XYZ
    dof rx ry rz
    limits (-20.0 45.0)
           (-30.0 30.0)
           (-30.0 30.0)
  end
  begin
     id 17 
     name lclavicle
     direction 0.988267 0.149885 0.0293713  
     length 4.47222  
     axis 0 0 0   XYZ
    dof ry rz
    limits (-20.0 10.0)
           (0.0 20.0)
  end
  begin
     id 18 
     name lhumerus
     direction 1 -4.48986e-011 -1.14833e-027   
     length 5.37148   
     axis 180 -30 -90   XYZ
    dof rx ry rz
    limits (-60.0 90.0)
           (-90.0 90.0)
           (-90.0 90.0)
  end
  begin
     id 19
     name lradius
     direction 0.999998 0.00170963 -0.000987055   
     length 3.94212   
     axis 180 -30 -90   XYZ
    dof rx
    limits (-10.0 170.0)
  end
  begin
     id 20
     name lwrist
     direction 0.999998 7.53149e-005 -0.00194706   
     length 1.97106   
     axis 4.65056e-015 90 90   XYZ
    dof ry
    limits (-180.0 0.0)
 end
  begin
     id 21 
     name lhand
     direction 1 -4.48973e-011 -1.31746e-026   
     length 1.17917   
     axis 8.4065e-015 90 90   XYZ
    dof rx rz
    limits (-90.0 90.0)
           (-45.0 45.0)
  end
  begin
     id 22 
     name lfingers
     direction 1 -4.49107e-011 -2.63492e-026   
     length 0.950679   
     axis 1.6813e-014 90 90   XYZ
    dof rx
    limits (0.0 90.0)
  end
  begin
     id 23
     name lthumb
     direction 0.707107 -6.35048e-011 0.707107   
     length 1.36499   
     axis -90 45 2.85299e-015   XYZ
    dof rx rz
    limits (-45.0 45.0)
           (-45.0 45.0)
  end
  begin
     id 24 
     name rclavicle
     direction -0.996699 0.0642895 -0.0495725   
     length 4.62611  
     axis 0 0 0   XYZ 
    dof ry rz
    limits (-10.0 20.0)
           (-20.0 0.0)
  end
  begin
     id 25 
     name rhumerus
     direction -1 -4.48919e-011 -2.41059e-027  
     length 5.4981   
     axis 180 30 90   XYZ
    dof rx ry rz
    limits (-90.0 60.0)
           (-90.0 90.0)
           (-90.0 90.0)
  end
  begin
     id 26 
     name rradius
     direction -0.999999 0.00118101 -0.000681858   
     length 3.48381   
     axis 180 30 90   XYZ
    dof rx
    limits (-10.0 170.0)
  end
  begin
     id 27 
     name rwrist
     direction -0.999999 0.000321823 -0.00132288   
     length 1.7419   
     axis 4.65056e-015 -90 -90   XYZ
    dof ry
    limits (-180.0 0.0)
  end
  begin
     id 28
     name rhand
     direction -1 -4.49022e-011 -1.31746e-026   
     length 1.34932   
     axis 8.4065e-015 -90 -90   XYZ
    dof rx rz
    limits (-90.0 90.0)
           (-45.0 45.0)
  end
  begin
     id 29
     name rfingers
     direction -1 -4.49178e-011 -2.63492e-026   
     length 1.08785   
     axis 1.6813e-014 -90 -90   XYZ
    dof rx
    limits (0.0 90.0)
  end
  begin
     id 30
     name rthumb
     direction -0.707107 -6.34713e-011 0.707107   
     length 1.56195   
     axis -90 -45 -2.85299e-015   XYZ
    dof rx rz
    limits (-45.0 45.0)
           (-45.0 45.0)
  end
:hierarchy
  begin
    root lhipjoint rhipjoint lowerback
    lhipjoint lfemur
    lfemur ltibia
    ltibia lfoot
    lfoot ltoes
    rhipjoint rfemur
    rfemur rtibia
    rtibia rfoot
    rfoot rtoes
    lowerback upperback
    upperback thorax
    thorax lowerneck lclavicle rclavicle
    lowerneck upperneck
    upperneck head
    lclavicle lhumerus
    lhumerus lradius
    lradius lwrist
    lwrist lhand lthumb
    lhand lfingers
    rclavicle rhumerus
    rhumerus rradius
    rradius rwrist
    rwrist rhand rthumb
    rhand rfingers
  end

#!OML:ASF X:\für Bonn\!DataBase\2005_08_10_Bjorn_Final\c3d\bjorn.ASF
:FULLY-SPECIFIED
:DEGREES
16
root 0.529622 19.3295 4.47639 -173.773 4.07859 -178.426
lowerback 2.94208 0.687522 4.70865
upperback 15.5082 3.39157 1.62735
thorax 15.6297 3.18941 -0.122372
lowerneck -10.219 -2.79519 -1.38511
upperneck -0.394957 -3.74838 -2.17201
head 1.58807 -2.03243 -0.616022
rclavicle -6.36111e-015 2.54444e-014
rhumerus -1403.93 -21.7265 1343.14
rradius 10.017
rwrist 32.5453
rhand -21.3065 14.5207
rfingers 7.12502
rthumb 5.07839 -15.3984
lclavicle -6.36111e-015 2.54444e-014
lhumerus 41.4798 2.88109 101.834
lradius 10.8181
lwrist -51.1584
lhand -26.5009 0.136938
lfingers 7.12502
lthumb 0.0619152 30.1167
rfemur -23.3264 -9.07835 17.1946
rtibia 28.2249
rfoot -10.5985 12.7072
rtoes -9.93242
lfemur -21.0771 5.75198 -14.7419
ltibia 29.9566
lfoot -10.4595 -6.86993
ltoes -1.10039
17
root 0.529291 19.3313 4.49174 -173.825 3.96995 -178.423
lowerback 2.89277 0.692585 4.75506
upperback 15.4824 3.38731 1.60524
thorax 15.6332 3.19208 -0.17219
lowerneck -10.6688 -2.81016 -1.40595
upperneck 0.167237 -3.72719 -2.11906
head 1.8554 -2.02122 -0.612555
rclavicle -5.32743e-014 -3.10104e-014
rhumerus -1402.02 -18.668 1344.59
rradius 10.2656
rwrist 31.8946
rhand -21.3687 14.6461
rfingers 7.12502
rthumb 5.01839 -15.2744
lclavicle -5.32743e-014 -3.10104e-014
lhumerus 43.7554 -0.855206 98.5534
lradius 11.2769
lwrist -48.1316
lhand -26.3224 0.571783
lfingers 7.12502
lthumb 0.234359 30.5514
rfemur -23.274 -9.22624 17.2036
rtibia 28.1554
rfoot -10.3725 12.751
rtoes -9.96903
lfemur -21.0549 5.67835 -14.7291
ltibia 29.9045
lfoot -10.3851 -6.89063
ltoes -1.47807
18
root 0.529393 19.3305 4.50061 -173.953 3.8503 -178.379
lowerback 2.81165 0.701952 4.8761
upperback 15.484 3.39462 1.56905
thorax 15.7001 3.21592 -0.271216
lowerneck -10.9778 -2.84893 -1.34262
upperneck 0.619747 -3.75529 -2.06568
head 2.06164 -2.03214 -0.621072
rclavicle -3.18055e-015 -5.56597e-015
rhumerus -1400.1 -15.8002 1346.29
rradius 10.5833
rwrist 30.9575
rhand -21.3651 14.6696
rfingers 7.12502
rthumb 5.02186 -15.2509
lclavicle -3.18055e-015 -5.56597e-015
lhumerus 46.2983 -4.20683 94.9747
lradius 11.7143
lwrist -45.513
lhand -25.9291 1.12005
lfingers 7.12502
lthumb 0.614201 31.0989
rfemur -23.119 -9.33991 17.2388
rtibia 28.0999
rfoot -10.1785 12.746
rtoes -10.076
lfemur -20.9321 5.6553 -14.6689
ltibia 29.8694
lfoot -10.3306 -6.98065
ltoes -2.00655
19
root 0.528824 19.3282 4.50288 -174.14 3.7263 -178.381
lowerback 2.71588 0.699485 4.94259
upperback 15.4698 3.37957 1.53008
thorax 15.751 3.21903 -0.347252
lowerneck -11.1085 -2.88793 -1.32329
upperneck 1.02428 -3.7831 -1.97
head 2.22245 -2.03891 -0.60418
rclavicle -4.21423e-014 -2.94201e-014
rhumerus -1398.16 -13.1353 1348.18
rradius 10.8495
rwrist 29.7182
rhand -21.2789 14.7965
rfingers 7.12502
rthumb 5.10503 -15.122
lclavicle -4.21423e-014 -2.94201e-014
lhumerus 48.9546 -6.80756 91.493
lradius 12.1699
lwrist -43.6553
lhand -25.7314 1.55698
lfingers 7.12502
lthumb 0.805153 31.5352
rfemur -22.8948 -9.44803 17.2089
rtibia 28.0683
rfoot -10.1053 12.7221
rtoes -10.8867
lfemur -20.7295 5.60443 -14.6547
ltibia 29.8397
lfoot -10.292 -7.04051
ltoes -2.48196
20
root 0.52808 19.3266 4.49824 -174.383 3.61894 -178.4
lowerback 2.60221 0.706124 4.99478
upperback 15.4488 3.37316 1.48603
thorax 15.8046 3.22329 -0.419915
lowerneck -11.1711 -2.92367 -1.26834
upperneck 1.44322 -3.81104 -1.89344
head 2.37548 -2.04479 -0.598267
rclavicle -7.95139e-015 1.59028e-015
rhumerus -1396.15 -11.0214 1349.93
rradius 11.1677
rwrist 29.3478
rhand -20.8728 14.5649
rfingers 7.12502
rthumb 5.49715 -15.3438
lclavicle -7.95139e-015 1.59028e-015
lhumerus 51.6332 -8.82491 88.1271
lradius 12.623
lwrist -42.0938
lhand -26.259 1.66398
lfingers 7.12502
lthumb 0.295569 31.6435
rfemur -22.5936 -9.53398 17.1358
rtibia 28.0514
rfoot -9.97962 12.738
rtoes -11.2544
lfemur -20.4454 5.46681 -14.6475
ltibia 29.8198
lfoot -10.2903 -7.03411
ltoes -2.89335
21
root 0.528611 19.3229 4.4875 -174.686 3.51253 -178.447
lowerback 2.46838 0.709687 5.00901
upperback 15.4278 3.3629 1.42487
thorax 15.8696 3.2216 -0.490233
lowerneck -11.2282 -2.95749 -1.1875
upperneck 1.94403 -3.83685 -1.81959
head 2.55559 -2.04847 -0.59874
rclavicle -4.21423e-014 3.97569e-015
rhumerus -1394.09 -9.26647 1351.66
rradius 11.4333
rwrist 29.2882
rhand -20.3221 14.2081
rfingers 7.12502
rthumb 6.02885 -15.6861
lclavicle -4.21423e-014 3.97569e-015
lhumerus 54.2135 -10.4344 84.6617
lradius 13.1406
lwrist -40.7312
lhand -26.832 1.68735
lfingers 7.12502
lthumb -0.257856 31.6669
rfemur -22.2068 -9.55305 17.0118
rtibia 28.0485
rfoot -9.9317 12.684
rtoes -11.9101
lfemur -20.0744 5.33822 -14.6619
ltibia 29.797
lfoot -10.3096 -7.02069
ltoes -3.46879
22
root 0.528572 19.3191 4.47099 -175.019 3.41805 -178.434
lowerback 2.32248 0.730258 5.08564
upperback 15.3545 3.35163 1.37847
thorax 15.8786 3.21833 -0.583819
lowerneck -11.2107 -2.98265 -1.05946
upperneck 2.57984 -3.85212 -1.76295
head 2.76775 -2.04487 -0.612879
rclavicle 5.32743e-014 -2.38542e-015
rhumerus -1392.21 -7.70794 1353.56
rradius 11.6318
rwrist 29.243
rhand -20.599 14.6236
rfingers 7.12502
rthumb 5.76153 -15.2781
lclavicle 5.32743e-014 -2.38542e-015
lhumerus 56.5622 -11.3261 81.8798
lradius 13.6457
lwrist -40.3517
lhand -27.1961 1.56811
lfingers 7.12502
lthumb -0.60946 31.547
rfemur -21.7692 -9.55083 16.9523
rtibia 28.0458
rfoot -9.90099 12.6023
rtoes -12.6467
lfemur -19.65 5.21992 -14.6045
ltibia 29.7778
lfoot -10.3305 -7.0078
ltoes -3.82585
23
root 0.529319 19.3132 4.44701 -175.413 3.33272 -178.399
lowerback 2.16465 0.756907 5.18802
upperback 15.2597 3.33859 1.32758
thorax 15.87 3.21458 -0.698497
lowerneck -11.0873 -3.00192 -0.878956
upperneck 3.25117 -3.86829 -1.73557
head 2.97178 -2.04132 -0.644115
rclavicle -4.13472e-014 7.95139e-016
rhumerus -1390.39 -6.33962 1355.57
rradius 11.7713
rwrist 29.218
rhand -21.1213 15.1167
rfingers 7.12502
rthumb 5.25719 -14.7981
lclavicle -4.13472e-014 7.95139e-016
lhumerus 58.7578 -11.8213 79.3767
lradius 14.1244
lwrist -40.4515
lhand -27.5068 1.2584
lfingers 7.12502
lthumb -0.909565 31.2362
rfemur -21.2304 -9.44351 16.8868
rtibia 28.0455
rfoot -9.93929 12.4715
rtoes -13.4148
lfemur -19.1324 5.0574 -14.5121
ltibia 29.7603
lfoot -10.3421 -6.95144
ltoes -3.97898
24
root 0.528974 19.3085 4.41718 -175.807 3.27535 -178.389
lowerback 1.99127 0.798456 5.24862
upperback 15.1164 3.32802 1.27839
thorax 15.8062 3.19747 -0.793161
lowerneck -10.8983 -3.0212 -0.685138
upperneck 3.98697 -3.88834 -1.73641
head 3.1859 -2.04091 -0.687067
rclavicle -1.78906e-014 -1.90833e-014
rhumerus -1388.69 -5.08821 1357.81
rradius 12.0404
rwrist 29.1904
rhand -21.4294 15.3767
rfingers 7.12502
rthumb 4.95969 -14.5452
lclavicle -1.78906e-014 -1.90833e-014
lhumerus 60.8581 -12.1266 76.8042
lradius 14.5985
lwrist -40.3141
lhand -27.7854 0.77045
lfingers 7.12502
lthumb -1.17869 30.7469
rfemur -20.6728 -9.37352 16.7933
rtibia 28.0428
rfoot -9.94857 12.399
rtoes -13.8824
lfemur -18.5938 4.86143 -14.4494
ltibia 29.7432
lfoot -10.3933 -6.84189
ltoes -4.38968
25
root 0.528546 19.3037 4.38 -176.204 3.26424 -178.372
lowerback 1.74663 0.861795 5.33085
upperback 14.9675 3.33743 1.21369
thorax 15.7868 3.19154 -0.910388
lowerneck -10.6506 -3.04894 -0.469017
upperneck 4.68715 -3.93126 -1.71534
head 3.37729 -2.05121 -0.726666
rclavicle 4.8901e-014 -1.51076e-014
rhumerus -1386.91 -4.32281 1359.66
rradius 12.2418
rwrist 29.9168
rhand -21.7211 15.564
rfingers 7.12502
rthumb 4.67811 -14.3643
lclavicle 4.8901e-014 -1.51076e-014
lhumerus 62.9238 -12.2235 74.3182
lradius 15.048
lwrist -39.8484
lhand -27.8975 0.534912
lfingers 7.12502
lthumb -1.28695 30.5108
rfemur -20.0957 -9.25709 16.7057
rtibia 28.0418
rfoot -10.0357 12.3214
rtoes -14.6473
lfemur -18.0283 4.66666 -14.3837
ltibia 29.7293
lfoot -10.4668 -6.69159
ltoes -4.55374
